$MeshFormat
4.1 0 8
$EndMeshFormat
$PhysicalNames
10
0 1 "DOMAIN_BOUNDARY_POINT_2"
0 2 "DOMAIN_BOUNDARY_POINT_3"
0 3 "DOMAIN_BOUNDARY_POINT_4"
0 4 "DOMAIN_BOUNDARY_POINT_5"
1 5 "DOMAIN_BOUNDARY_LINE_1"
1 6 "DOMAIN_BOUNDARY_LINE_2"
1 7 "DOMAIN_BOUNDARY_LINE_3"
1 8 "DOMAIN_BOUNDARY_LINE_4"
1 10 "FRACTURE_0"
2 9 "DOMAIN"
$EndPhysicalNames
$Entities
6 5 1 0
1 0.04 0.04 0 0 
2 0.06 0.06 0 0 
3 0 0 0 1 1 
4 0.1 0 0 1 2 
5 0.1 0.1 0 1 3 
6 0 0.1 0 1 4 
1 0 0 0 0.1 0 0 1 5 2 3 -4 
2 0.1 0 0 0.1 0.1 0 1 6 2 4 -5 
3 0 0.1 0 0.1 0.1 0 1 7 2 5 -6 
4 0 0 0 0 0.1 0 1 8 2 3 -6 
5 0.04 0.04 0 0.06 0.06 0 1 10 2 1 -2 
1 0 0 0 0.1 0.1 0 1 9 5 1 2 3 -4 10 
$EndEntities
$Nodes
12 538 1 538
0 1 0 1
1
0.04 0.04 0
0 2 0 1
2
0.06 0.06 0
0 3 0 1
3
0 0 0
0 4 0 1
4
0.1 0 0
0 5 0 1
5
0.1 0.1 0
0 6 0 1
6
0 0.1 0
1 1 0 19
7
8
9
10
11
12
13
14
15
16
17
18
19
20
21
22
23
24
25
0.004999999999990302 0 0
0.009999999999982483 0 0
0.01499999999997171 0 0
0.019999999999956 0 0
0.02499999999994164 0 0
0.02999999999992728 0 0
0.03499999999991292 0 0
0.03999999999989585 0 0
0.0449999999998815 0 0
0.0499999999998685 0 0
0.05499999999988016 0 0
0.05999999999989426 0 0
0.06499999999990864 0 0
0.06999999999991974 0 0
0.07499999999993355 0 0
0.07999999999994738 0 0
0.0849999999999585 0 0
0.08999999999997287 0 0
0.0949999999999878 0 0
1 2 0 19
26
27
28
29
30
31
32
33
34
35
36
37
38
39
40
41
42
43
44
0.1 0.004999999999990302 0
0.1 0.009999999999982483 0
0.1 0.01499999999997171 0
0.1 0.019999999999956 0
0.1 0.02499999999994164 0
0.1 0.02999999999992728 0
0.1 0.03499999999991292 0
0.1 0.03999999999989585 0
0.1 0.0449999999998815 0
0.1 0.0499999999998685 0
0.1 0.05499999999988016 0
0.1 0.05999999999989426 0
0.1 0.06499999999990864 0
0.1 0.06999999999991974 0
0.1 0.07499999999993355 0
0.1 0.07999999999994738 0
0.1 0.0849999999999585 0
0.1 0.08999999999997287 0
0.1 0.0949999999999878 0
1 3 0 19
45
46
47
48
49
50
51
52
53
54
55
56
57
58
59
60
61
62
63
0.09500000000001382 0.1 0
0.09000000000002764 0.1 0
0.08500000000004147 0.1 0
0.08000000000005529 0.1 0
0.07500000000006912 0.1 0
0.07000000000008294 0.1 0
0.06500000000009676 0.1 0
0.06000000000011058 0.1 0
0.05500000000012441 0.1 0
0.05000000000013687 0.1 0
0.04500000000012466 0.1 0
0.04000000000011003 0.1 0
0.03500000000009511 0.1 0
0.03000000000008349 0.1 0
0.02500000000006912 0.1 0
0.02000000000005478 0.1 0
0.01500000000004312 0.1 0
0.01000000000002821 0.1 0
0.005000000000012744 0.1 0
1 4 0 19
64
65
66
67
68
69
70
71
72
73
74
75
76
77
78
79
80
81
82
0 0.004999999999990302 0
0 0.009999999999982483 0
0 0.01499999999997171 0
0 0.019999999999956 0
0 0.02499999999994164 0
0 0.02999999999992728 0
0 0.03499999999991292 0
0 0.03999999999989585 0
0 0.0449999999998815 0
0 0.0499999999998685 0
0 0.05499999999988016 0
0 0.05999999999989426 0
0 0.06499999999990864 0
0 0.06999999999991974 0
0 0.07499999999993355 0
0 0.07999999999994738 0
0 0.0849999999999585 0
0 0.08999999999997287 0
0 0.0949999999999878 0
1 5 0 5
83
84
85
86
87
0.0433333333333252 0.0433333333333252 0
0.04666666666664768 0.04666666666664768 0
0.04999999999997154 0.04999999999997154 0
0.05333333333331346 0.05333333333331346 0
0.05666666666665809 0.05666666666665809 0
2 1 0 451
88
89
90
91
92
93
94
95
96
97
98
99
100
101
102
103
104
105
106
107
108
109
110
111
112
113
114
115
116
117
118
119
120
121
122
123
124
125
126
127
128
129
130
131
132
133
134
135
136
137
138
139
140
141
142
143
144
145
146
147
148
149
150
151
152
153
154
155
156
157
158
159
160
161
162
163
164
165
166
167
168
169
170
171
172
173
174
175
176
177
178
179
180
181
182
183
184
185
186
187
188
189
190
191
192
193
194
195
196
197
198
199
200
201
202
203
204
205
206
207
208
209
210
211
212
213
214
215
216
217
218
219
220
221
222
223
224
225
226
227
228
229
230
231
232
233
234
235
236
237
238
239
240
241
242
243
244
245
246
247
248
249
250
251
252
253
254
255
256
257
258
259
260
261
262
263
264
265
266
267
268
269
270
271
272
273
274
275
276
277
278
279
280
281
282
283
284
285
286
287
288
289
290
291
292
293
294
295
296
297
298
299
300
301
302
303
304
305
306
307
308
309
310
311
312
313
314
315
316
317
318
319
320
321
322
323
324
325
326
327
328
329
330
331
332
333
334
335
336
337
338
339
340
341
342
343
344
345
346
347
348
349
350
351
352
353
354
355
356
357
358
359
360
361
362
363
364
365
366
367
368
369
370
371
372
373
374
375
376
377
378
379
380
381
382
383
384
385
386
387
388
389
390
391
392
393
394
395
396
397
398
399
400
401
402
403
404
405
406
407
408
409
410
411
412
413
414
415
416
417
418
419
420
421
422
423
424
425
426
427
428
429
430
431
432
433
434
435
436
437
438
439
440
441
442
443
444
445
446
447
448
449
450
451
452
453
454
455
456
457
458
459
460
461
462
463
464
465
466
467
468
469
470
471
472
473
474
475
476
477
478
479
480
481
482
483
484
485
486
487
488
489
490
491
492
493
494
495
496
497
498
499
500
501
502
503
504
505
506
507
508
509
510
511
512
513
514
515
516
517
518
519
520
521
522
523
524
525
526
527
528
529
530
531
532
533
534
535
536
537
538
0.09572251283398354 0.03226862935533461 0
0.06722077744941715 0.004184244821772942 0
0.004327768012505024 0.06748436556454709 0
0.03241095839353757 0.09584039962102978 0
0.09572252000730075 0.07732535870475014 0
0.003959090996750829 0.02244035883114711 0
0.02751144030383881 0.004323747035177743 0
0.09549076884602037 0.04683985000649119 0
0.07248941958207117 0.09567613467065618 0
0.05225369038159428 0.004274262709006446 0
0.003922443451033627 0.05259499289991931 0
0.04741234280967947 0.09601078079641501 0
0.004270285961757827 0.03742636139533553 0
0.09567671559569747 0.0624704799211339 0
0.08233401548483996 0.004175373962634837 0
0.01746571066292224 0.09552576401705358 0
0.004335209440747868 0.08247811181430757 0
0.09567640328893295 0.01777113948052913 0
0.03746292342221098 0.004321242388392204 0
0.01753560478780252 0.004356959336167782 0
0.06235899138197282 0.09603110029369291 0
0.08246909992311016 0.09565976895836067 0
0.004103357732758964 0.01278714103846196 0
0.09549082449970565 0.08791874531137217 0
0.09220331382677097 0.004430352284672354 0
0.00422550307481713 0.09222392108157502 0
0.09246163997675327 0.09579775869984282 0
0.007539370315239886 0.004214185636982074 0
0.03248563274619506 0.004314500966916606 0
0.02999401727360729 0.008618459084721201 0
0.02504248763514206 0.008630948401961337 0
0.0275312401797015 0.01290689463638987 0
0.03245573344525413 0.01289743842221633 0
0.03000129892187742 0.01716273916807202 0
0.03489523601920279 0.01714787150515659 0
0.02509070522412396 0.01716958871762734 0
0.02755408200792842 0.02140951865317353 0
0.02265893037262182 0.02142368049526392 0
0.02511387356354142 0.02564879130057073 0
0.02022699894889456 0.02566459723173233 0
0.02268000760209227 0.02988494740776261 0
0.02993313755939631 0.02571609302279385 0
0.02018607261389706 0.01719036662380932 0
0.01779262949276588 0.02990227111774789 0
0.02025134515277145 0.03411781706751081 0
0.0251048761691779 0.03412298483536661 0
0.02269798521078472 0.03833659303507791 0
0.01783304377316661 0.03834847276962842 0
0.02028595674581084 0.04255187175824693 0
0.02514254858202275 0.04253411955637484 0
0.02273977346554441 0.04673971042467012 0
0.02758553752562756 0.04671356191227066 0
0.02518750744943305 0.0509159404797257 0
0.03002420029380416 0.05089371480427807 0
0.02762963088021132 0.05508969855181413 0
0.03246470109010209 0.05506907806385975 0
0.0302585686990772 0.05915621915311007 0
0.03493882645323355 0.05922744113692558 0
0.03273378038219552 0.06331602235426559 0
0.03739473942426862 0.06340063584413368 0
0.03499599280040804 0.06760497833389714 0
0.03980978372511257 0.06759538192490781 0
0.02989476731545944 0.06753444707990515 0
0.03740487742055802 0.07181376530670153 0
0.04225342597257804 0.07178866521866473 0
0.03984656142951171 0.07601539165003704 0
0.04471197845147545 0.07598510626523242 0
0.02286638640714216 0.05502178103153602 0
0.03497619290160368 0.07604040615892961 0
0.04711107077740007 0.07176276638041558 0
0.04957240301338614 0.07595066557556261 0
0.04229870418814125 0.08003084391898627 0
0.04222409181953148 0.06340828807183974 0
0.05196928224718932 0.07173446762610011 0
0.05443201936852916 0.07591376879599016 0
0.05203030411415685 0.08014393901682031 0
0.05689411786368191 0.08010136448728357 0
0.05929072255300533 0.07587047712200709 0
0.06175689897790641 0.08005574617885375 0
0.06414689831759554 0.07581727436309488 0
0.06662329204091212 0.08001324890931814 0
0.06901735906232151 0.07576249006853654 0
0.07147130163180462 0.07995245604047452 0
0.07386595933733495 0.07569242366093044 0
0.0714097093767629 0.0715056106625286 0
0.0762578518333223 0.0714358305283793 0
0.0738061730752793 0.06725766726592632 0
0.07669875750417036 0.07942432921879827 0
0.07855758716267941 0.06713571313111373 0
0.07617696069967278 0.06300520901803834 0
0.08117726739863591 0.07140353754261951 0
0.08103779692700436 0.06283330809413452 0
0.07849569951828143 0.05879427407571609 0
0.07370629194272632 0.05883197436269284 0
0.07606616500670721 0.05461062810044618 0
0.07118146076425406 0.05461347994994884 0
0.0735925398859473 0.05044052727516899 0
0.06858008280453434 0.05038760649929268 0
0.07112093448893451 0.04626235582805441 0
0.07599418810649217 0.04629204650197268 0
0.07350685940085983 0.04205925658410601 0
0.06854990703862673 0.04208168561875887 0
0.07101099474968628 0.03787012570047008 0
0.06610442566452274 0.03793289163173179 0
0.06852754527538213 0.03369662987948981 0
0.06368467807675571 0.03376874805417957 0
0.06605225234351356 0.02951766251093541 0
0.06118327190357813 0.02958931675440534 0
0.07094358694287613 0.02946780991408112 0
0.06355877609735723 0.02533071058498021 0
0.05868377477701296 0.02540552417795081 0
0.07593526928258032 0.03787847270163604 0
0.05630235410596066 0.02965539472473082 0
0.05381578294514121 0.02548437244803716 0
0.06105887753848128 0.02113313559557727 0
0.06595195385793071 0.02106161661074218 0
0.0611896827142178 0.03797269206923528 0
0.08051250982733542 0.05472421490215934 0
0.05143960398020882 0.02972217378713879 0
0.04899575270135146 0.02558512960998308 0
0.05135095464434637 0.02133594001716078 0
0.0154093442285053 0.04258505530831737 0
0.05449766668936139 0.08435058560592379 0
0.06355141730240164 0.01678252979792186 0
0.06845810117792657 0.016784245191215 0
0.04661407002016854 0.02979920805665991 0
0.03725804027884679 0.05511640860653769 0
0.04412091822843928 0.0256512808614663 0
0.04177916796910723 0.0298692263443943 0
0.04907577840327904 0.03393337051151038 0
0.06167690037933886 0.07164086354714631 0
0.06920958217262201 0.08397972247494012 0
0.01532787832482782 0.02567044876133245 0
0.01288955603919514 0.02992743397777618 0
0.02997940306555438 0.04253129789232592 0
0.04951451833208582 0.06756517768621499 0
0.06894826019607135 0.06731780421335029 0
0.03736446491651485 0.01290317852201072 0
0.05855765874583325 0.01691146652978007 0
0.06105429411415106 0.01254638413610761 0
0.07087119953690812 0.02100625969350255 0
0.07331442409749411 0.01679401733450282 0
0.07581129771996076 0.02096037794562694 0
0.0782276219372107 0.01676611014559173 0
0.08075220808642429 0.02091765907732983 0
0.08317317313075631 0.0167064128108203 0
0.08570310242118176 0.02085767395288463 0
0.08327890153306133 0.02516283641863679 0
0.0763346808723801 0.01270062672811416 0
0.08809324382616984 0.02509484432671333 0
0.08577661251270211 0.02941207007552038 0
0.04961064430532644 0.08438244632023378 0
0.03975985641460976 0.01714284857370921 0
0.04225765350708806 0.01291340414976315 0
0.08085369089509728 0.02945082187112343 0
0.08337049046747833 0.03369616684318974 0
0.05434364140634414 0.0675397253129317 0
0.03947014378299264 0.02568016225258348 0
0.03703237180320124 0.02995875831710514 0
0.05605294344822174 0.01272659482478827 0
0.06888498539876457 0.05885998535002983 0
0.05180173786016339 0.06345726604878506 0
0.01302439207484976 0.03841978270008974 0
0.01060896063079136 0.04267522151757603 0
0.0130047240172914 0.04686152140412157 0
0.05208617381734727 0.08847656850038058 0
0.05696554989374993 0.08854642935812379 0
0.04724972091178185 0.08860317127579505 0
0.08795757735922397 0.01642922935413166 0
0.08573041949354487 0.01244496751453571 0
0.09022520898101732 0.012258687470233 0
0.05874292283507003 0.008370473761258677 0
0.04451447511715739 0.01721082607385988 0
0.04698339052506154 0.01298555582211411 0
0.04471751231884198 0.008662510472999891 0
0.08813036487109979 0.03376726497380216 0
0.08585857286100979 0.03798037147002832 0
0.09060927986967411 0.03798156578399678 0
0.08836037868218373 0.04210466402554131 0
0.08342065849911719 0.04219661732897415 0
0.08641059557894236 0.04708828673609144 0
0.05451784532506766 0.09238469325714251 0
0.008325812311524291 0.04686226835365416 0
0.01090293493205062 0.05096250360904764 0
0.01549223039331166 0.05109958616300445 0
0.01367773760323814 0.05527349204561531 0
0.01071864264823905 0.02531765771943263 0
0.01307184140780017 0.0212533518805147 0
0.007955071626808499 0.02996019639955423 0
0.03959310015863229 0.03477324114285331 0
0.0346235974525279 0.03414222405043085 0
0.09304132111608326 0.04210766025991095 0
0.08822984702260933 0.008022374532074049 0
0.06404898618870557 0.008296724405705478 0
0.005063614597685349 0.04259124231156919 0
0.04948657702874704 0.008683921551821312 0
0.08086127227074735 0.04643115750569916 0
0.04706437821352798 0.06342126702563666 0
0.04933045088529284 0.0593540208204474 0
0.04463094560291059 0.05928394714742231 0
0.04705549473487243 0.05509599255938263 0
0.04229479893125455 0.05514905774085621 0
0.07133635822144301 0.0630704947689916 0
0.06649547801614375 0.06315032840391206 0
0.06405957016969467 0.0675164833929338 0
0.04427269079698722 0.03401543747188106 0
0.04672380654363438 0.03819527273940763 0
0.05151638020819511 0.03806620950856492 0
0.04896759452379228 0.0423880917299692 0
0.0539499318167843 0.04216555182246608 0
0.04189656843513806 0.04708321119695073 0
0.05634592281069713 0.03800580070025351 0
0.05875693641859837 0.04213881098209825 0
0.05634239632098909 0.04599208252974244 0
0.06115993570610326 0.04620520355721225 0
0.05881366779039272 0.04989522727268708 0
0.06362567236539891 0.05027251075587026 0
0.06089374090235494 0.05474004813007226 0
0.06601108956368368 0.0544562821070824 0
0.05876334377545808 0.03381017158750331 0
0.06605000090084913 0.04621712333930127 0
0.02749362865915642 0.02994394065860406 0
0.03238501525346994 0.02144790540410501 0
0.044652992113333 0.0675830380523349 0
0.02753115761411058 0.03835079979790487 0
0.02252759600268562 0.004329263709514695 0
0.02007604328943267 0.008663927483781314 0
0.015082984898052 0.008699328701491147 0
0.05681225864461909 0.07169558687049146 0
0.05918528078057848 0.06762254176825529 0
0.06654311625029748 0.07159342104126508 0
0.03240644984246711 0.04669866621073276 0
0.03543542914423331 0.04226169650612238 0
0.0372331613058185 0.04696693545638334 0
0.03476584605204821 0.0509791663069116 0
0.06747666541638386 0.0957411686194064 0
0.06453649881524533 0.09193946069432682 0
0.0697683747352178 0.09171994218388864 0
0.07492564147322923 0.09157457086537819 0
0.07746883231159271 0.0957079004759325 0
0.0799351999535884 0.09138369769832773 0
0.08492772592356435 0.09132655163845067 0
0.08243744072878073 0.08704719671798797 0
0.08724848985791847 0.08691275486843032 0
0.08487578914515742 0.08271098337572028 0
0.08981375238046442 0.08265374678499614 0
0.08739700016000175 0.07792934718741137 0
0.08215568264856196 0.07882716360135214 0
0.0907151670334537 0.09091125420312658 0
0.03975162907757496 0.05923417691898752 0
0.07833430824292252 0.02520420995370431 0
0.07588936671761247 0.02944015824273589 0
0.0809574329944631 0.03801414584061855 0
0.01253499180211494 0.004366499440690456 0
0.009960692225263751 0.008260104057253883 0
0.01221468673257242 0.01301744856587998 0
0.07728009358206983 0.08749337357210414 0
0.09564804446358417 0.05237333925662253 0
0.09115383027577519 0.04991145078808557 0
0.09133380572404229 0.05492122262888258 0
0.08719509364690725 0.05247639729378601 0
0.08732130350630952 0.05731106731926663 0
0.09136443534676407 0.05989618452223351 0
0.0862698446249556 0.06258501400807422 0
0.0042159093867841 0.05756206890419061 0
0.004324391251963756 0.0624900653600879 0
0.008637106951183559 0.06499166328489545 0
0.008647311290469334 0.06995710232227281 0
0.0129367284981885 0.06746890585336936 0
0.01294840454991803 0.07241658407778567 0
0.01721994894604522 0.06992575133584911 0
0.01723991063784778 0.07487036154369744 0
0.01721132604598748 0.06499550479112512 0
0.01296731303384627 0.07738971158084937 0
0.01726829969350512 0.07982615888732675 0
0.02153315620871046 0.07731614499939408 0
0.02156519022344089 0.08227049976685559 0
0.01728984926469013 0.08477810225277663 0
0.0215942176446199 0.08729490559194926 0
0.02587095415977329 0.08473341284869455 0
0.0259037200161755 0.08968361488673787 0
0.03014133477137661 0.08711987945766089 0
0.02148317084282098 0.06744341525180737 0
0.02996026406287154 0.08221624709761816 0
0.03486049113343087 0.08420309644682014 0
0.02146647056623769 0.06252531754531782 0
0.03463258489007703 0.08924913218033427 0
0.03925736332286128 0.08713695988380388 0
0.03874051981530662 0.09200099264524805 0
0.01677890515013116 0.0598348753664838 0
0.01732888639298868 0.08995075388251564 0
0.01300615151304871 0.08733143025026785 0
0.01300959173116085 0.09225906175915342 0
0.02182546692776709 0.09230056099898176 0
0.02680514284476091 0.09518046232343372 0
0.02543600294766277 0.06491429091903578 0
0.008662044415924969 0.08982107685489069 0
0.004333106425296222 0.07246965519847258 0
0.004334270467576845 0.07747606627603226 0
0.008673395209819024 0.07991061501676922 0
0.008448958756755208 0.06029759210878353 0
0.02149993909085704 0.07237642923482743 0
0.02556782924714255 0.07481386246711889 0
0.02576269873486394 0.07976515909159208 0
0.03013425733528357 0.0766821211705446 0
0.04240595119809439 0.09515999852432074 0
0.09568151277627782 0.06749045972977691 0
0.09122410378134845 0.06495406835516043 0
0.09128331146974394 0.06991639943785929 0
0.08715836580884836 0.06773828381786566 0
0.08769739437848495 0.07264946460012449 0
0.09147795982068285 0.07490063345805283 0
0.09569421734566755 0.07243880855504874 0
0.07244748908879534 0.004193008829185543 0
0.06933998584431895 0.008306263372975946 0
0.06629534730726443 0.01248889028131432 0
0.07745926645536078 0.004171284919488357 0
0.07949536111923824 0.00849047790821349 0
0.09566987298109031 0.02749999999993445 0
0.09567370319534613 0.02250663412564353 0
0.01269412378312895 0.06275536125760441 0
0.09491510126190973 0.08263104505008913 0
0.004126725660013125 0.0175377415871798 0
0.08759560547615843 0.09561588891663012 0
0.03238855671803136 0.03837701125400048 0
0.09113384177408961 0.02961333815188603 0
0.09509856434151698 0.01243935228912506 0
0.03493183929769893 0.008622416044649049 0
0.02543471108458802 0.06989983755220261 0
0.09565247506384054 0.05743832167279991 0
0.01787521955353023 0.04678117922438561 0
0.09107488638429401 0.02050136434462485 0
0.05675933633971961 0.06369465734768454 0
0.05372654957190218 0.01705467634696908 0
0.008650633496154287 0.07493662241203031 0
0.05932050760301892 0.08426858737029565 0
0.02260838940591875 0.0129100214494804 0
0.05618632079745482 0.02121961927680526 0
0.04716164580323293 0.08015442775627847 0
0.0539072305472998 0.03386552013661694 0
0.0733793811671678 0.02522480494192492 0
0.06845952499095892 0.0252681440426944 0
0.03268877413948301 0.07199871640174985 0
0.01537359144403694 0.03414245560822951 0
0.02035629461481728 0.05094322910503438 0
0.03754237131083434 0.0799017806791066 0
0.01780243923455906 0.0214059995765423 0
0.064193802245171 0.08403558683941881 0
0.01760977872904861 0.0129502126514116 0
0.02533545945649356 0.05973114362619921 0
0.04239278314011431 0.00433033854480753 0
0.01298686740096583 0.0823551170711983 0
0.004323158770395953 0.08740296569831743 0
0.03726154899184225 0.02137704509132473 0
0.03985452943374485 0.008625515020437092 0
0.01079497508022022 0.0343619889993841 0
0.09552621183230255 0.0377296615439363 0
0.07345683933974931 0.0336699978737983 0
0.04401521212957689 0.08474181244811931 0
0.04733357784462977 0.004320996089883643 0
0.008165194994492361 0.09530497323159701 0
0.07843427307035862 0.03366679080437696 0
0.02988037267743438 0.03419447287171153 0
0.01834354348163447 0.0551293074061626 0
0.07838369485905167 0.04208317789973745 0
0.008664471125150392 0.0848832194509585 0
0.01538153274243793 0.01721960249628692 0
0.04196800989839543 0.02143200762422762 0
0.06359990889429536 0.04211327447371221 0
0.03226769546000038 0.0299757169619672 0
0.07828267526308799 0.05050939324324738 0
0.03472498547515046 0.02569261350831323 0
0.07915825885829347 0.07537556205134963 0
0.07953974278608381 0.08326234607740859 0
0.07444583394989934 0.0836889996021826 0
0.06415612477651675 0.0589434359668253 0
0.04668760080627182 0.02143422620414527 0
0.09592774002364986 0.007330193484538059 0
0.004565729024296257 0.007866016551890526 0
0.09582795459390543 0.09254512463193829 0
0.008364614945674507 0.02057106709799631 0
0.04452034204485581 0.05085418714391446 0
0.007994374595165613 0.01548206298794475 0
0.003969596050529729 0.0325361532096384 0
0.003800968301317034 0.02748081166368222 0
0.008470050948592444 0.0552313867104146 0
0.04265091453267508 0.08954898180317422 0
0.06173987350094415 0.08820575245511007 0
0.0306173413869337 0.09173659419478884 0
0.05161544857416696 0.04590151630940369 0
0.05749999999988725 0.003873023384268814 0
0.05960312648618289 0.09227486394336167 0
0.06208544774548048 0.004120744395500985 0
0.04915156240095185 0.01724168738968207 0
0.03966145950799365 0.05102482774192567 0
0.08301209097110396 0.05866491696925859 0
0.05158004908090526 0.01299152194468441 0
0.07145393738920931 0.0125130291445198 0
0.07442178679488377 0.008395781817082882 0
0.03750000000010256 0.09631614802024299 0
0.003877036410350295 0.04770007082342292 0
0.06155463794091095 0.06395871590648362 0
0.008536745423722137 0.03860858553634954 0
0.05420037486019613 0.008573327725368731 0
0.08296169530690546 0.05103108486990613 0
0.08116487595392174 0.01260247414107017 0
0.05386516287310991 0.05967743947714676 0
0.08722748091023422 0.003880443912279642 0
0.09090016523188293 0.04566401471281721 0
0.0364837065171587 0.03783115424958605 0
0.05234798409183453 0.09616484802800619 0
0.05730465788088214 0.09614258425370055 0
0.08283702910542455 0.06674708487895339 0
0.04980124614077239 0.09223900332064264 0
0.01272809947772936 0.09661795980156081 0
0.09156569120359651 0.08649807631064158 0
0.07204995437848635 0.08767265538337439 0
0.0669163476412811 0.08792552000517648 0
0.02248718382241404 0.09665094457413544 0
0.09181292074230084 0.07902138823895798 0
0.09236808628865234 0.02500078292328301 0
0.03349471534880481 0.07980873031060381 0
0.05448289859714485 0.04972160231350906 0
0.02091465070482581 0.05854661405979078 0
0.08403033333073137 0.008269351995134648 0
0.04278458616651583 0.03806345693749345 0
0.03959482841696892 0.08320289867536723 0
0.04590403511860064 0.09231238714406953 0
0.09200652807099705 0.01587995458772874 0
0.03958280541815552 0.04387581392155122 0
0.01140437773675027 0.01750023567956362 0
0.09221918660264322 0.008769052093122096 0
0.09217619910492943 0.03424977540861429 0
0.02873906474987532 0.07222316362750905 0
0.003660254037837768 0.003660254037837769 0
0.09633974596217025 0.09633974596216328 0
0.09633974596214213 0.003660254037852081 0
0.003660254037854351 0.09633974596214588 0
0.08365978154157472 0.07435061816036231 0
0.02880144997395739 0.06280781745727908 0
0.05066743518449216 0.05581018366861498 0
0.09696962421646474 0.04241603793975322 0
0.03514334828076221 0.09317269395580473 0
0.01215171729652779 0.05894362614096919 0
0.05680439372468132 0.05311997034267084 0
0.08428839196676952 0.05487454291875482 0
0.006961349823989897 0.03504722039588865 0
0.007117799895526722 0.05030432931928117 0
0.006959677703757983 0.0251540183423625 0
0.08440767603899889 0.07009021973021956 0
0.007752484763224406 0.01147874395858682 0
$EndNodes
$Elements
10 1084 1 1084
0 3 15 1
1 3 
0 4 15 1
2 4 
0 5 15 1
3 5 
0 6 15 1
4 6 
1 1 1 20
5 3 7 
6 7 8 
7 8 9 
8 9 10 
9 10 11 
10 11 12 
11 12 13 
12 13 14 
13 14 15 
14 15 16 
15 16 17 
16 17 18 
17 18 19 
18 19 20 
19 20 21 
20 21 22 
21 22 23 
22 23 24 
23 24 25 
24 25 4 
1 2 1 20
25 4 26 
26 26 27 
27 27 28 
28 28 29 
29 29 30 
30 30 31 
31 31 32 
32 32 33 
33 33 34 
34 34 35 
35 35 36 
36 36 37 
37 37 38 
38 38 39 
39 39 40 
40 40 41 
41 41 42 
42 42 43 
43 43 44 
44 44 5 
1 3 1 20
45 5 45 
46 45 46 
47 46 47 
48 47 48 
49 48 49 
50 49 50 
51 50 51 
52 51 52 
53 52 53 
54 53 54 
55 54 55 
56 55 56 
57 56 57 
58 57 58 
59 58 59 
60 59 60 
61 60 61 
62 61 62 
63 62 63 
64 63 6 
1 4 1 20
65 3 64 
66 64 65 
67 65 66 
68 66 67 
69 67 68 
70 68 69 
71 69 70 
72 70 71 
73 71 72 
74 72 73 
75 73 74 
76 74 75 
77 75 76 
78 76 77 
79 77 78 
80 78 79 
81 79 80 
82 80 81 
83 81 82 
84 82 6 
1 5 1 6
85 1 83 
86 83 84 
87 84 85 
88 85 86 
89 86 87 
90 87 2 
2 1 2 994
91 91 58 382 
92 336 111 467 
93 83 294 296 
94 111 336 503 
95 268 346 348 
96 281 89 402 
97 281 402 403 
98 375 446 474 
99 2 420 494 
100 469 289 482 
101 72 71 282 
102 87 2 494 
103 58 59 382 
104 294 83 513 
105 446 375 514 
106 62 63 448 
107 179 351 500 
108 175 461 462 
109 461 344 462 
110 460 178 526 
111 485 402 486 
112 84 83 296 
113 236 485 486 
114 463 291 489 
115 288 85 528 
116 346 268 496 
117 298 469 482 
118 448 63 525 
119 377 273 451 
120 71 100 282 
121 91 382 476 
122 87 494 528 
123 378 103 380 
124 268 348 492 
125 86 87 528 
126 334 398 399 
127 273 377 531 
128 398 334 526 
129 175 335 461 
130 105 407 419 
131 351 179 483 
132 393 376 474 
133 335 175 460 
134 85 288 469 
135 2 87 305 
136 103 378 381 
137 156 392 430 
138 2 305 463 
139 2 463 489 
140 1 277 513 
141 277 1 497 
142 211 227 403 
143 259 478 480 
144 335 460 526 
145 281 259 480 
146 406 88 413 
147 351 397 500 
148 275 274 468 
149 72 282 488 
150 333 409 503 
151 97 478 491 
152 115 342 466 
153 1 320 497 
154 114 336 467 
155 475 324 479 
156 324 108 479 
157 85 86 528 
158 383 373 437 
159 393 474 515 
160 102 495 512 
161 320 1 517 
162 183 248 306 
163 430 392 521 
164 83 1 513 
165 468 274 536 
166 478 259 491 
167 185 304 308 
168 212 211 403 
169 186 185 308 
170 227 281 403 
171 105 419 516 
172 495 280 512 
173 471 69 472 
174 219 504 505 
175 267 284 452 
176 89 281 480 
177 409 333 507 
178 279 95 496 
179 466 342 538 
180 504 325 505 
181 185 183 306 
182 366 368 381 
183 284 187 452 
184 310 441 459 
185 378 366 381 
186 405 236 486 
187 191 189 456 
188 413 88 520 
189 372 433 514 
190 189 186 308 
191 304 185 306 
192 95 279 529 
193 53 498 499 
194 236 405 493 
195 383 437 527 
196 112 280 495 
197 84 296 477 
198 292 218 317 
199 97 283 447 
200 446 255 474 
201 214 289 337 
202 409 111 503 
203 92 399 400 
204 526 178 537 
205 189 308 456 
206 305 306 463 
207 204 299 307 
208 383 150 416 
209 498 269 499 
210 397 396 398 
211 276 471 472 
212 16 97 447 
213 381 368 382 
214 299 204 300 
215 288 289 469 
216 441 245 459 
217 279 265 444 
218 351 350 395 
219 350 101 395 
220 287 160 337 
221 340 199 449 
222 248 290 291 
223 215 245 455 
224 289 214 482 
225 395 396 397 
226 289 287 337 
227 245 441 455 
228 340 267 452 
229 218 292 318 
230 387 386 422 
231 115 341 342 
232 339 196 428 
233 380 103 502 
234 361 387 422 
235 160 285 311 
236 8 9 341 
237 248 181 290 
238 37 101 417 
239 440 104 453 
240 336 114 411 
241 200 307 427 
242 285 160 287 
243 399 396 400 
244 243 340 449 
245 101 350 417 
246 277 216 293 
247 307 299 427 
248 306 248 463 
249 351 395 397 
250 223 157 311 
251 321 298 482 
252 375 372 514 
253 338 339 428 
254 133 128 309 
255 319 321 322 
256 129 124 310 
257 181 177 290 
258 371 391 392 
259 224 172 318 
260 115 8 341 
261 107 313 314 
262 285 223 311 
263 161 244 316 
264 107 10 313 
265 248 291 463 
266 329 336 411 
267 109 327 328 
268 109 48 327 
269 257 493 512 
270 141 319 322 
271 109 329 411 
272 145 214 337 
273 319 222 320 
274 134 133 312 
275 172 169 318 
276 107 314 315 
277 371 367 391 
278 384 113 440 
279 218 316 317 
280 354 388 408 
281 106 438 442 
282 109 328 329 
283 133 309 450 
284 323 108 324 
285 162 161 316 
286 139 222 319 
287 316 244 317 
288 216 213 293 
289 292 224 318 
290 323 324 325 
291 78 385 386 
292 9 107 341 
293 193 204 307 
294 124 121 310 
295 104 79 386 
296 199 445 449 
297 367 364 391 
298 90 353 354 
299 13 106 116 
300 51 108 323 
301 432 155 451 
302 204 191 456 
303 290 224 291 
304 438 262 442 
305 78 77 385 
306 169 167 318 
307 167 218 318 
308 104 386 387 
309 157 152 311 
310 183 181 248 
311 283 262 447 
312 293 217 294 
313 213 206 217 
314 161 223 244 
315 396 394 400 
316 90 76 353 
317 244 223 249 
318 174 172 224 
319 116 106 415 
320 394 39 400 
321 246 216 277 
322 10 11 313 
323 94 116 117 
324 213 217 293 
325 126 124 129 
326 139 137 222 
327 161 157 223 
328 36 37 417 
329 200 195 307 
330 424 130 436 
331 48 49 327 
332 363 389 390 
333 74 98 352 
334 319 320 321 
335 128 126 309 
336 119 120 121 
337 121 122 310 
338 264 267 340 
339 95 345 346 
340 96 323 325 
341 230 232 338 
342 353 352 388 
343 177 174 290 
344 363 359 389 
345 121 120 122 
346 174 224 290 
347 218 165 316 
348 165 162 316 
349 346 347 348 
350 141 139 319 
351 132 128 133 
352 167 165 218 
353 404 102 405 
354 126 129 309 
355 398 396 399 
356 129 310 459 
357 182 181 183 
358 195 193 307 
359 309 129 457 
360 143 141 322 
361 79 78 386 
362 145 143 214 
363 101 394 395 
364 119 117 120 
365 214 143 322 
366 118 117 119 
367 207 206 213 
368 31 88 406 
369 180 177 181 
370 329 328 330 
371 386 385 422 
372 199 340 452 
373 201 200 206 
374 147 145 337 
375 193 191 204 
376 158 157 161 
377 291 224 292 
378 354 353 388 
379 149 147 160 
380 249 285 286 
381 215 213 216 
382 262 438 447 
383 294 295 296 
384 22 102 404 
385 267 268 284 
386 120 117 415 
387 160 147 337 
388 370 360 373 
389 94 12 116 
390 96 50 323 
391 95 35 345 
392 370 373 383 
393 330 328 344 
394 358 360 370 
395 348 347 349 
396 136 134 137 
397 346 345 347 
398 358 356 360 
399 123 121 124 
400 138 137 139 
401 137 134 312 
402 338 242 339 
403 264 266 267 
404 89 401 402 
405 228 428 429 
406 445 339 449 
407 235 238 242 
408 75 352 353 
409 334 332 335 
410 328 326 344 
411 369 367 371 
412 99 55 393 
413 243 264 340 
414 132 133 134 
415 355 354 356 
416 286 287 288 
417 101 38 394 
418 198 195 200 
419 356 354 408 
420 173 172 174 
421 230 338 428 
422 16 17 97 
423 74 73 98 
424 54 55 99 
425 37 38 101 
426 11 12 94 
427 71 70 100 
428 13 14 106 
429 34 35 95 
430 49 50 96 
431 51 52 108 
432 90 354 355 
433 272 252 418 
434 125 124 126 
435 246 277 278 
436 370 383 416 
437 225 120 415 
438 94 117 118 
439 222 312 412 
440 412 312 450 
441 171 169 172 
442 314 424 436 
443 184 183 185 
444 303 304 305 
445 384 440 453 
446 180 181 182 
447 77 76 90 
448 19 20 89 
449 57 58 91 
450 31 32 88 
451 232 235 338 
452 75 74 352 
453 301 302 303 
454 320 222 412 
455 154 152 157 
456 357 356 358 
457 317 244 420 
458 369 371 372 
459 390 389 416 
460 89 20 401 
461 242 238 243 
462 349 351 483 
463 208 421 425 
464 96 325 326 
465 222 137 312 
466 77 90 385 
467 395 394 396 
468 127 126 128 
469 294 217 295 
470 364 363 391 
471 271 252 272 
472 235 242 338 
473 267 266 268 
474 140 139 141 
475 149 160 311 
476 297 300 301 
477 391 390 392 
478 331 330 332 
479 105 29 407 
480 12 13 116 
481 35 36 345 
482 50 51 323 
483 249 223 285 
484 119 121 123 
485 40 92 400 
486 387 361 439 
487 30 31 406 
488 47 109 411 
489 92 41 409 
490 93 67 410 
491 76 75 353 
492 85 84 477 
493 176 174 177 
494 428 196 429 
495 342 315 343 
496 49 96 327 
497 401 21 404 
498 136 137 138 
499 187 284 458 
500 30 406 407 
501 39 40 400 
502 362 359 363 
503 15 16 447 
504 164 162 165 
505 21 22 404 
506 206 200 427 
507 55 56 393 
508 11 94 313 
509 272 432 451 
510 198 200 201 
511 38 39 394 
512 359 358 389 
513 421 226 425 
514 355 356 357 
515 201 206 207 
516 122 225 240 
517 235 237 238 
518 366 364 367 
519 373 360 377 
520 182 183 184 
521 232 234 235 
522 9 10 107 
523 47 48 109 
524 333 332 334 
525 349 350 351 
526 363 390 391 
527 207 213 215 
528 368 367 369 
529 245 216 246 
530 329 330 331 
531 158 161 162 
532 358 370 389 
533 40 41 92 
534 68 67 93 
535 278 412 450 
536 142 141 143 
537 154 157 158 
538 286 285 287 
539 20 21 401 
540 243 263 264 
541 357 358 359 
542 296 295 297 
543 28 105 414 
544 190 189 191 
545 42 111 409 
546 66 110 410 
547 144 143 145 
548 114 46 411 
549 510 303 532 
550 271 272 273 
551 46 47 411 
552 113 384 448 
553 41 42 409 
554 67 66 410 
555 146 145 147 
556 107 315 341 
557 166 165 167 
558 27 28 414 
559 196 339 445 
560 152 149 311 
561 171 172 173 
562 117 116 415 
563 131 128 132 
564 374 372 375 
565 29 30 407 
566 240 241 260 
567 192 191 193 
568 138 139 140 
569 123 124 125 
570 188 186 189 
571 22 23 102 
572 60 61 103 
573 80 79 104 
574 28 29 105 
575 42 43 111 
576 66 65 110 
577 148 147 149 
578 288 287 289 
579 7 8 115 
580 45 46 114 
581 362 363 364 
582 24 25 112 
583 82 81 113 
584 264 265 266 
585 179 177 180 
586 341 315 342 
587 125 126 127 
588 122 120 225 
589 135 134 136 
590 235 234 237 
591 303 302 304 
592 331 332 333 
593 301 300 302 
594 366 367 368 
595 215 216 245 
596 244 249 420 
597 389 370 416 
598 349 347 350 
599 345 36 417 
600 313 118 314 
601 243 238 263 
602 369 372 374 
603 119 123 424 
604 173 174 176 
605 327 326 328 
606 194 193 195 
607 184 185 186 
608 360 356 408 
609 295 217 427 
610 164 165 166 
611 305 304 306 
612 90 355 385 
613 240 260 455 
614 315 314 436 
615 140 141 142 
616 361 359 362 
617 151 149 152 
618 203 212 228 
619 136 138 418 
620 197 195 198 
621 127 128 131 
622 88 32 444 
623 228 229 230 
624 211 202 226 
625 379 380 384 
626 329 331 336 
627 258 257 280 
628 264 263 265 
629 176 177 179 
630 365 364 366 
631 96 326 327 
632 123 130 424 
633 190 191 192 
634 230 231 232 
635 232 233 234 
636 240 225 241 
637 238 237 413 
638 142 143 144 
639 188 189 190 
640 270 252 271 
641 144 145 146 
642 357 359 361 
643 168 167 169 
644 146 147 148 
645 227 226 247 
646 192 193 194 
647 132 134 135 
648 260 241 261 
649 148 149 151 
650 94 118 313 
651 251 209 252 
652 374 375 376 
653 198 201 425 
654 256 257 258 
655 203 228 429 
656 153 152 154 
657 362 364 365 
658 377 360 408 
659 379 378 380 
660 228 212 229 
661 266 265 279 
662 166 167 168 
663 299 295 427 
664 122 240 441 
665 272 418 432 
666 256 233 257 
667 163 162 164 
668 365 378 379 
669 234 233 256 
670 237 234 419 
671 180 182 205 
672 365 366 378 
673 231 229 236 
674 197 198 202 
675 194 195 197 
676 232 231 233 
677 343 315 436 
678 457 129 459 
679 230 229 231 
680 297 299 300 
681 170 169 171 
682 83 84 298 
683 211 226 227 
684 263 238 413 
685 247 226 421 
686 201 208 425 
687 227 259 281 
688 118 119 424 
689 347 345 417 
690 314 118 424 
691 253 210 254 
692 234 256 419 
693 217 206 427 
694 197 202 203 
695 203 211 212 
696 151 152 153 
697 220 274 275 
698 201 207 208 
699 203 202 211 
700 80 104 440 
701 192 194 196 
702 158 162 163 
703 135 136 209 
704 123 125 130 
705 227 247 259 
706 226 202 425 
707 242 243 449 
708 355 357 422 
709 168 170 219 
710 153 154 159 
711 14 15 438 
712 113 81 440 
713 261 262 283 
714 170 171 175 
715 252 209 418 
716 187 186 188 
717 188 190 199 
718 415 106 442 
719 209 136 418 
720 168 169 170 
721 251 252 270 
722 297 295 299 
723 146 148 150 
724 151 153 156 
725 239 253 255 
726 350 347 417 
727 385 355 422 
728 173 176 178 
729 357 361 422 
730 163 210 239 
731 274 221 276 
732 220 131 221 
733 132 135 431 
734 184 186 187 
735 261 241 262 
736 163 164 210 
737 140 142 155 
738 304 302 308 
739 228 230 428 
740 164 166 423 
741 414 258 519 
742 127 131 220 
743 202 198 425 
744 135 209 250 
745 251 270 282 
746 239 210 253 
747 253 254 269 
748 131 132 431 
749 220 221 274 
750 250 209 251 
751 361 362 439 
752 135 250 431 
753 254 210 423 
754 154 158 426 
755 159 426 446 
756 159 154 426 
757 210 164 423 
758 225 415 442 
759 197 203 429 
760 194 197 429 
761 418 138 432 
762 431 250 443 
763 196 194 429 
764 104 387 453 
765 365 379 439 
766 138 140 432 
767 148 151 430 
768 158 163 426 
769 125 127 434 
770 220 275 434 
771 142 144 437 
772 166 168 435 
773 106 14 438 
774 221 131 431 
775 153 159 433 
776 130 125 434 
777 163 239 426 
778 156 153 433 
779 150 148 430 
780 241 225 442 
781 221 431 443 
782 310 122 441 
783 151 156 430 
784 168 219 435 
785 81 80 440 
786 439 379 453 
787 312 133 450 
788 127 220 434 
789 426 239 446 
790 192 196 445 
791 423 166 435 
792 140 155 432 
793 155 142 437 
794 199 190 445 
795 362 365 439 
796 433 372 509 
797 190 192 445 
798 300 204 456 
799 32 33 444 
800 387 439 453 
801 450 309 457 
802 262 241 442 
803 438 15 447 
804 276 221 443 
805 239 255 446 
806 301 303 510 
807 376 393 487 
808 343 436 454 
809 188 199 452 
810 282 100 490 
811 339 242 449 
812 284 268 492 
813 384 380 448 
814 280 112 519 
815 273 272 451 
816 302 300 456 
817 335 332 461 
818 330 344 461 
819 205 182 458 
820 436 130 454 
821 282 270 488 
822 184 187 458 
823 187 188 452 
824 322 321 482 
825 398 526 537 
826 379 384 453 
827 291 292 489 
828 441 240 455 
829 130 434 454 
830 434 275 454 
831 26 27 465 
832 43 44 467 
833 65 64 466 
834 175 171 460 
835 70 69 471 
836 455 260 464 
837 420 2 489 
838 84 85 469 
839 207 215 464 
840 173 178 460 
841 493 405 512 
842 278 450 457 
843 69 68 472 
844 308 302 456 
845 170 175 462 
846 246 278 457 
847 182 184 458 
848 317 420 489 
849 97 17 478 
850 352 98 473 
851 297 301 477 
852 476 374 530 
853 320 412 497 
854 298 321 517 
855 246 457 459 
856 369 374 476 
857 19 89 480 
858 215 455 464 
859 465 414 519 
860 279 444 529 
861 245 246 459 
862 404 405 486 
863 393 56 487 
864 98 73 488 
865 103 381 506 
866 57 91 487 
867 332 330 461 
868 95 346 496 
869 423 435 475 
870 171 173 460 
871 402 401 486 
872 260 261 481 
873 150 383 527 
874 382 368 476 
875 481 261 484 
876 277 293 513 
877 420 249 494 
878 219 170 462 
879 388 352 473 
880 180 205 483 
881 92 409 507 
882 27 414 465 
883 283 97 491 
884 468 410 470 
885 110 65 466 
886 111 43 467 
887 475 435 505 
888 93 410 468 
889 208 207 464 
890 100 70 471 
891 410 110 470 
892 257 233 493 
893 108 52 499 
894 251 282 490 
895 268 266 496 
896 102 23 495 
897 24 112 495 
898 298 84 469 
899 231 236 493 
900 53 54 498 
901 325 324 505 
902 344 326 504 
903 113 448 525 
904 68 93 472 
905 236 229 485 
906 321 320 517 
907 271 273 473 
908 91 476 530 
909 278 277 497 
910 464 260 481 
911 62 448 502 
912 443 250 490 
913 261 283 484 
914 336 331 503 
915 60 103 506 
916 178 176 500 
917 253 269 501 
918 392 390 521 
919 372 371 509 
920 406 413 508 
921 34 95 529 
922 484 283 491 
923 376 375 474 
924 305 87 532 
925 368 369 476 
926 377 408 531 
927 103 61 502 
928 254 423 475 
929 419 407 508 
930 3 7 522 
931 64 3 522 
932 44 5 523 
933 5 45 523 
934 25 4 524 
935 4 26 524 
936 6 82 525 
937 63 6 525 
938 296 297 477 
939 382 59 506 
940 419 256 516 
941 254 475 479 
942 219 462 504 
943 83 298 517 
944 208 464 481 
945 263 413 520 
946 17 18 478 
947 146 150 527 
948 478 18 480 
949 444 33 529 
950 258 414 516 
951 324 475 505 
952 437 144 527 
953 269 254 479 
954 292 317 489 
955 159 446 514 
956 388 473 531 
957 462 344 504 
958 18 19 480 
959 334 399 507 
960 276 443 534 
961 421 208 481 
962 214 322 482 
963 212 403 485 
964 473 273 531 
965 421 481 484 
966 342 343 538 
967 86 510 532 
968 479 108 499 
969 229 212 485 
970 416 150 521 
971 473 98 535 
972 414 105 516 
973 274 276 536 
974 403 402 485 
975 179 180 483 
976 150 430 521 
977 269 498 501 
978 247 421 484 
979 401 404 486 
980 88 444 520 
981 471 276 534 
982 56 57 487 
983 73 72 488 
984 247 484 491 
985 250 251 490 
986 413 237 508 
987 444 265 520 
988 259 247 491 
989 249 286 494 
990 343 470 538 
991 93 468 536 
992 233 231 493 
993 110 466 538 
994 205 458 492 
995 271 473 535 
996 333 334 507 
997 237 419 508 
998 399 92 507 
999 303 305 532 
1000 276 472 536 
1001 437 373 511 
1002 23 24 495 
1003 266 279 496 
1004 343 454 518 
1005 392 156 509 
1006 99 393 515 
1007 451 155 511 
1008 412 278 497 
1009 54 99 498 
1010 61 62 502 
1011 86 85 510 
1012 458 284 492 
1013 52 53 499 
1014 405 102 512 
1015 492 348 533 
1016 371 392 509 
1017 269 479 499 
1018 155 437 511 
1019 377 451 511 
1020 176 179 500 
1021 255 253 501 
1022 331 333 503 
1023 494 286 528 
1024 381 382 506 
1025 326 325 504 
1026 448 380 502 
1027 59 60 506 
1028 407 406 508 
1029 435 219 505 
1030 98 488 535 
1031 470 343 518 
1032 477 301 510 
1033 156 433 509 
1034 483 205 533 
1035 373 377 511 
1036 293 294 513 
1037 280 257 512 
1038 467 44 523 
1039 466 64 522 
1040 26 465 524 
1041 468 470 518 
1042 256 258 516 
1043 1 83 517 
1044 390 416 521 
1045 454 275 518 
1046 433 159 514 
1047 258 280 519 
1048 487 91 530 
1049 265 263 520 
1050 334 335 526 
1051 7 115 522 
1052 45 114 523 
1053 112 25 524 
1054 82 113 525 
1055 205 492 533 
1056 286 288 528 
1057 498 99 501 
1058 408 388 531 
1059 397 398 537 
1060 144 146 527 
1061 33 34 529 
1062 275 468 518 
1063 178 500 537 
1064 348 349 533 
1065 443 490 534 
1066 374 376 530 
1067 112 465 519 
1068 87 86 532 
1069 270 271 535 
1070 114 467 523 
1071 115 466 522 
1072 465 112 524 
1073 85 477 510 
1074 474 255 515 
1075 488 270 535 
1076 349 483 533 
1077 100 471 534 
1078 255 501 515 
1079 470 110 538 
1080 501 99 515 
1081 472 93 536 
1082 490 100 534 
1083 376 487 530 
1084 500 397 537 
$EndElements
